<mxfile host="app.diagrams.net" modified="2021-08-14T12:56:18.155Z" agent="5.0 (Windows NT 10.0; Win64; x64) AppleWebKit/537.36 (KHTML, like Gecko) Chrome/90.0.4430.212 Safari/537.36" etag="wPOrGiVZDZJujzExNm2D" version="14.9.6" type="github">
  <diagram id="Ks8_kP-rEZVV7iMJRFuj" name="Page-1">
    <mxGraphModel dx="922" dy="1096" grid="1" gridSize="10" guides="1" tooltips="1" connect="1" arrows="1" fold="1" page="1" pageScale="1" pageWidth="827" pageHeight="1169" math="0" shadow="0">
      <root>
        <mxCell id="0" />
        <mxCell id="1" parent="0" />
        <mxCell id="I8PYkdgbBRFIFa69O0Lc-4" value="" style="edgeStyle=orthogonalEdgeStyle;rounded=0;orthogonalLoop=1;jettySize=auto;html=1;" parent="1" source="I8PYkdgbBRFIFa69O0Lc-1" target="I8PYkdgbBRFIFa69O0Lc-3" edge="1">
          <mxGeometry relative="1" as="geometry" />
        </mxCell>
        <mxCell id="I8PYkdgbBRFIFa69O0Lc-1" value="&lt;div style=&quot;line-height: 27px&quot;&gt;&amp;nbsp;require(&#39;./a.js&#39;)&lt;/div&gt;" style="rounded=0;whiteSpace=wrap;html=1;" parent="1" vertex="1">
          <mxGeometry x="130" y="90" width="120" height="60" as="geometry" />
        </mxCell>
        <mxCell id="I8PYkdgbBRFIFa69O0Lc-6" value="" style="edgeStyle=orthogonalEdgeStyle;rounded=0;orthogonalLoop=1;jettySize=auto;html=1;" parent="1" source="I8PYkdgbBRFIFa69O0Lc-3" target="I8PYkdgbBRFIFa69O0Lc-5" edge="1">
          <mxGeometry relative="1" as="geometry" />
        </mxCell>
        <mxCell id="I8PYkdgbBRFIFa69O0Lc-3" value="&lt;div style=&quot;line-height: 27px&quot;&gt;&lt;div style=&quot;line-height: 27px&quot;&gt;&amp;nbsp;mod.require(path)&lt;/div&gt;&lt;/div&gt;" style="rounded=0;whiteSpace=wrap;html=1;" parent="1" vertex="1">
          <mxGeometry x="130" y="180" width="120" height="60" as="geometry" />
        </mxCell>
        <mxCell id="I8PYkdgbBRFIFa69O0Lc-9" value="Y" style="edgeStyle=orthogonalEdgeStyle;rounded=0;orthogonalLoop=1;jettySize=auto;html=1;" parent="1" source="I8PYkdgbBRFIFa69O0Lc-5" target="I8PYkdgbBRFIFa69O0Lc-8" edge="1">
          <mxGeometry relative="1" as="geometry" />
        </mxCell>
        <mxCell id="I8PYkdgbBRFIFa69O0Lc-11" value="" style="edgeStyle=orthogonalEdgeStyle;rounded=0;orthogonalLoop=1;jettySize=auto;html=1;entryX=0.5;entryY=0;entryDx=0;entryDy=0;" parent="1" source="I8PYkdgbBRFIFa69O0Lc-5" target="I8PYkdgbBRFIFa69O0Lc-13" edge="1">
          <mxGeometry relative="1" as="geometry">
            <mxPoint x="190" y="390" as="targetPoint" />
          </mxGeometry>
        </mxCell>
        <mxCell id="I8PYkdgbBRFIFa69O0Lc-12" value="N" style="edgeLabel;html=1;align=center;verticalAlign=middle;resizable=0;points=[];" parent="I8PYkdgbBRFIFa69O0Lc-11" vertex="1" connectable="0">
          <mxGeometry x="0.3206" y="2" relative="1" as="geometry">
            <mxPoint x="-2" y="-6" as="offset" />
          </mxGeometry>
        </mxCell>
        <mxCell id="I8PYkdgbBRFIFa69O0Lc-5" value="&lt;div style=&quot;line-height: 27px&quot;&gt;id!==string&lt;/div&gt;" style="rhombus;whiteSpace=wrap;html=1;rounded=0;" parent="1" vertex="1">
          <mxGeometry x="150" y="260" width="80" height="80" as="geometry" />
        </mxCell>
        <mxCell id="I8PYkdgbBRFIFa69O0Lc-8" value="Error" style="whiteSpace=wrap;html=1;rounded=0;" parent="1" vertex="1">
          <mxGeometry x="280" y="270" width="120" height="60" as="geometry" />
        </mxCell>
        <mxCell id="I8PYkdgbBRFIFa69O0Lc-15" value="" style="edgeStyle=orthogonalEdgeStyle;rounded=0;orthogonalLoop=1;jettySize=auto;html=1;" parent="1" source="I8PYkdgbBRFIFa69O0Lc-13" target="I8PYkdgbBRFIFa69O0Lc-14" edge="1">
          <mxGeometry relative="1" as="geometry" />
        </mxCell>
        <mxCell id="I8PYkdgbBRFIFa69O0Lc-16" value="N" style="edgeLabel;html=1;align=center;verticalAlign=middle;resizable=0;points=[];" parent="I8PYkdgbBRFIFa69O0Lc-15" vertex="1" connectable="0">
          <mxGeometry x="-0.1979" relative="1" as="geometry">
            <mxPoint as="offset" />
          </mxGeometry>
        </mxCell>
        <mxCell id="I8PYkdgbBRFIFa69O0Lc-17" style="edgeStyle=orthogonalEdgeStyle;rounded=0;orthogonalLoop=1;jettySize=auto;html=1;" parent="1" source="I8PYkdgbBRFIFa69O0Lc-13" target="I8PYkdgbBRFIFa69O0Lc-8" edge="1">
          <mxGeometry relative="1" as="geometry" />
        </mxCell>
        <mxCell id="I8PYkdgbBRFIFa69O0Lc-18" value="Y" style="edgeLabel;html=1;align=center;verticalAlign=middle;resizable=0;points=[];" parent="I8PYkdgbBRFIFa69O0Lc-17" vertex="1" connectable="0">
          <mxGeometry x="-0.501" y="-2" relative="1" as="geometry">
            <mxPoint y="-2" as="offset" />
          </mxGeometry>
        </mxCell>
        <mxCell id="I8PYkdgbBRFIFa69O0Lc-13" value="&lt;div style=&quot;line-height: 27px&quot;&gt;id&amp;nbsp;===&amp;nbsp;&#39;&#39;&lt;/div&gt;" style="rhombus;whiteSpace=wrap;html=1;" parent="1" vertex="1">
          <mxGeometry x="150" y="380" width="80" height="80" as="geometry" />
        </mxCell>
        <mxCell id="I8PYkdgbBRFIFa69O0Lc-20" value="" style="edgeStyle=orthogonalEdgeStyle;rounded=0;orthogonalLoop=1;jettySize=auto;html=1;" parent="1" source="I8PYkdgbBRFIFa69O0Lc-14" target="I8PYkdgbBRFIFa69O0Lc-19" edge="1">
          <mxGeometry relative="1" as="geometry" />
        </mxCell>
        <mxCell id="I8PYkdgbBRFIFa69O0Lc-14" value="&lt;div style=&quot;line-height: 27px&quot;&gt;requireDepth++&lt;/div&gt;" style="whiteSpace=wrap;html=1;" parent="1" vertex="1">
          <mxGeometry x="130" y="500" width="120" height="60" as="geometry" />
        </mxCell>
        <mxCell id="I8PYkdgbBRFIFa69O0Lc-27" value="" style="edgeStyle=orthogonalEdgeStyle;rounded=0;orthogonalLoop=1;jettySize=auto;html=1;" parent="1" source="I8PYkdgbBRFIFa69O0Lc-19" target="I8PYkdgbBRFIFa69O0Lc-26" edge="1">
          <mxGeometry relative="1" as="geometry" />
        </mxCell>
        <mxCell id="I8PYkdgbBRFIFa69O0Lc-29" value="&lt;span style=&quot;font-size: 12px ; background-color: rgb(248 , 249 , 250)&quot;&gt;relResolveCacheIdentifier&lt;/span&gt;" style="edgeLabel;html=1;align=center;verticalAlign=middle;resizable=0;points=[];" parent="I8PYkdgbBRFIFa69O0Lc-27" vertex="1" connectable="0">
          <mxGeometry x="-0.2343" y="1" relative="1" as="geometry">
            <mxPoint x="-1" as="offset" />
          </mxGeometry>
        </mxCell>
        <mxCell id="I8PYkdgbBRFIFa69O0Lc-19" value="&lt;div style=&quot;line-height: 27px&quot;&gt;&lt;div style=&quot;line-height: 27px&quot;&gt;&amp;nbsp;Module._load&lt;/div&gt;&lt;/div&gt;" style="whiteSpace=wrap;html=1;" parent="1" vertex="1">
          <mxGeometry x="130" y="600" width="120" height="60" as="geometry" />
        </mxCell>
        <mxCell id="I8PYkdgbBRFIFa69O0Lc-31" style="edgeStyle=orthogonalEdgeStyle;rounded=0;orthogonalLoop=1;jettySize=auto;html=1;entryX=0;entryY=0.5;entryDx=0;entryDy=0;" parent="1" source="I8PYkdgbBRFIFa69O0Lc-23" target="I8PYkdgbBRFIFa69O0Lc-33" edge="1">
          <mxGeometry relative="1" as="geometry">
            <mxPoint x="340" y="870" as="targetPoint" />
          </mxGeometry>
        </mxCell>
        <mxCell id="I8PYkdgbBRFIFa69O0Lc-23" value="&lt;div style=&quot;line-height: 27px&quot;&gt;relativeResolveCache&lt;/div&gt;" style="rhombus;whiteSpace=wrap;html=1;" parent="1" vertex="1">
          <mxGeometry x="117.5" y="820" width="145" height="100" as="geometry" />
        </mxCell>
        <mxCell id="I8PYkdgbBRFIFa69O0Lc-30" value="" style="edgeStyle=orthogonalEdgeStyle;rounded=0;orthogonalLoop=1;jettySize=auto;html=1;" parent="1" source="I8PYkdgbBRFIFa69O0Lc-26" target="I8PYkdgbBRFIFa69O0Lc-23" edge="1">
          <mxGeometry relative="1" as="geometry" />
        </mxCell>
        <mxCell id="I8PYkdgbBRFIFa69O0Lc-26" value="&lt;div style=&quot;line-height: 27px&quot;&gt;`${parent.path}\x00${request}`&lt;/div&gt;" style="rounded=0;whiteSpace=wrap;html=1;" parent="1" vertex="1">
          <mxGeometry x="100" y="710" width="180" height="60" as="geometry" />
        </mxCell>
        <mxCell id="I8PYkdgbBRFIFa69O0Lc-32" value="Y" style="text;html=1;align=center;verticalAlign=middle;resizable=0;points=[];autosize=1;strokeColor=none;" parent="1" vertex="1">
          <mxGeometry x="280" y="860" width="20" height="20" as="geometry" />
        </mxCell>
        <mxCell id="I8PYkdgbBRFIFa69O0Lc-33" value="&lt;div style=&quot;line-height: 27px&quot;&gt;cachedModule&lt;/div&gt;" style="rounded=0;whiteSpace=wrap;html=1;" parent="1" vertex="1">
          <mxGeometry x="330" y="840" width="120" height="60" as="geometry" />
        </mxCell>
      </root>
    </mxGraphModel>
  </diagram>
</mxfile>
